<svg xmlns="http://www.w3.org/2000/svg" fill="none" version="1.1"
     width="15.833333015441895" height="15.833333015441895" viewBox="0 0 15.833333015441895 15.833333015441895">
  <g>
    <path
      d="M1.58333,4.75L14.25,4.75L14.25,15.0417C14.25,15.4789,13.8956,15.8333,13.4583,15.8333L2.375,15.8333C1.93777,15.8333,1.58333,15.4789,1.58333,15.0417L1.58333,4.75ZM3.95833,2.375L3.95833,0.791667C3.95833,0.354441,4.31278,0,4.75,0L11.0833,0C11.5206,0,11.875,0.354441,11.875,0.791667L11.875,2.375L15.8333,2.375L15.8333,3.95833L0,3.95833L0,2.375L3.95833,2.375ZM5.54167,1.58333L5.54167,2.375L10.2917,2.375L10.2917,1.58333L5.54167,1.58333ZM5.54167,7.91667L5.54167,12.6667L7.125,12.6667L7.125,7.91667L5.54167,7.91667ZM8.70833,7.91667L8.70833,12.6667L10.2917,12.6667L10.2917,7.91667L8.70833,7.91667Z"
      fill="#878484" fill-opacity="1"/>
  </g>
</svg>
