<svg xmlns="http://www.w3.org/2000/svg" fill="none" version="1.1" width="16" height="16" viewBox="0 0 16 16">
  <defs>
    <clipPath id="master_svg0_150_1158">
      <rect x="0" y="0" width="16" height="16" rx="0"/>
    </clipPath>
  </defs>
  <g clip-path="url(#master_svg0_150_1158)">
    <rect x="0" y="0" width="16" height="16" rx="0" fill="#FFFFFF" fill-opacity="1"/>
    <g>
      <path
        d="M14,12.000028247070313L4,12.000028247070313C3.6318099999999998,12.000028247070313,3.33333,12.298428247070312,3.33333,12.666628247070312C3.33333,13.034828247070312,3.6318099999999998,13.333328247070312,4,13.333328247070312L14,13.333328247070312L14,14.666628247070312L4,14.666628247070312C2.89543,14.666628247070312,2,13.771228247070313,2,12.666628247070312L2,2.6666582470703126C2,1.9302822470703125,2.596954,1.3333282470703125,3.33333,1.3333282470703125L14,1.3333282470703125L14,12.000028247070313ZM10.66667,5.999998247070312L10.66667,4.666658247070313L5.33333,4.666658247070313L5.33333,5.999998247070312L10.66667,5.999998247070312Z"
        fill="#5B5B5B" fill-opacity="1"/>
    </g>
  </g>
</svg>
