<svg xmlns="http://www.w3.org/2000/svg" fill="none" version="1.1" width="16"
     height="16" viewBox="0 0 16 16">
  <defs>
    <clipPath id="master_svg0_150_1162">
      <rect x="0" y="0" width="16" height="16" rx="0"/>
    </clipPath>
  </defs>
  <g clip-path="url(#master_svg0_150_1162)">
    <g>
      <path
        d="M6.000013505859375,8.666671752929688L6.000013505859375,10.666671752929688L10.000013505859375,10.666671752929688L10.000013505859375,8.666671752929688L14.666643505859374,8.666671752929688L14.666643505859374,13.333371752929688C14.666643505859374,13.701571752929688,14.368243505859375,13.999971752929687,14.000043505859376,13.999971752929687L2.000010505859375,13.999971752929687C1.631820505859375,13.999971752929687,1.333343505859375,13.701571752929688,1.333343505859375,13.333371752929688L1.333343505859375,8.666671752929688L6.000013505859375,8.666671752929688ZM7.333343505859375,7.333341752929687L8.666673505859375,7.333341752929687L8.666673505859375,9.333341752929687L7.333343505859375,9.333341752929687L7.333343505859375,7.333341752929687ZM4.666673505859375,3.3333417529296874L4.666673505859375,1.3333387529296874C4.666673505859375,0.9651487529296875,4.965153505859375,0.6666717529296875,5.333343505859375,0.6666717529296875L10.666673505859375,0.6666717529296875C11.034863505859375,0.6666717529296875,11.333343505859375,0.9651487529296875,11.333343505859375,1.3333387529296874L11.333343505859375,3.3333417529296874L14.000043505859376,3.3333417529296874C14.368243505859375,3.3333417529296874,14.666643505859374,3.6318117529296874,14.666643505859374,4.000001752929688L14.666643505859374,7.333341752929687L10.000013505859375,7.333341752929687L10.000013505859375,6.000001752929688L6.000013505859375,6.000001752929688L6.000013505859375,7.333341752929687L1.333343505859375,7.333341752929687L1.333343505859375,4.000001752929688C1.333343505859375,3.6318117529296874,1.631820505859375,3.3333417529296874,2.000010505859375,3.3333417529296874L4.666673505859375,3.3333417529296874ZM6.000013505859375,2.0000017529296876L6.000013505859375,3.3333417529296874L10.000013505859375,3.3333417529296874L10.000013505859375,2.0000017529296876L6.000013505859375,2.0000017529296876Z"
        fill="#5B5B5B" fill-opacity="1"/>
    </g>
  </g>
</svg>
