<svg xmlns="http://www.w3.org/2000/svg" xmlns:xlink="http://www.w3.org/1999/xlink" fill="none" version="1.1" width="55.15418243408203" height="40" viewBox="0 0 55.15418243408203 40"><defs><clipPath id="master_svg0_24_590"><rect x="0" y="0" width="55.15418243408203" height="40" rx="0"/></clipPath></defs><g clip-path="url(#master_svg0_24_590)"><g><path d="M21.17720302734375,38.18926564941406C20.30660302734375,38.22496564941406,18.702703027343752,38.16866564941406,17.61320302734375,38.06406564941406C16.52360302734375,37.959465649414064,15.05560302734375,37.76896564941406,14.35090302734375,37.64066564941406C13.64630302734375,37.512365649414065,12.51188302734375,37.25176564941406,11.83008302734375,37.06146564941406C11.14827302734375,36.87126564941406,9.99790302734375,36.497365649414064,9.27371302734375,36.230665649414064C8.54951302734375,35.96386564941406,7.25767302734375,35.35576564941406,6.40294302734375,34.87916564941406C5.54821302734375,34.402565649414065,4.55528302734375,33.76936564941406,4.19643902734375,33.472165649414066C3.69166702734375,33.05396564941407,3.53486392734375,32.83006564941407,3.50366352734375,32.482865649414066C3.46678922734375,32.07246564941406,3.50588202734375,32.020465649414064,3.96037802734375,31.87496564941406C4.23506102734375,31.787065649414064,5.39348302734375,31.71526564941406,6.54984302734375,31.714465649414063C7.70067302734375,31.71376564941406,9.37419302734375,31.784765649414062,10.26879302734375,31.872365649414064C11.16338302734375,31.959965649414062,12.64440302734375,32.154965649414066,13.55990302734375,32.30576564941406C14.47550302734375,32.45646564941406,16.06200302734375,32.79966564941407,17.085503027343748,33.068265649414066C18.10900302734375,33.33696564941406,19.67240302734375,33.82106564941406,20.55980302734375,34.14406564941406C21.44720302734375,34.466965649414064,22.77670302734375,35.04586564941406,23.51430302734375,35.43026564941406C24.25190302734375,35.81476564941406,25.00970302734375,36.27506564941406,25.19840302734375,36.453265649414064C25.38710302734375,36.63146564941406,25.57540302734375,36.921165649414064,25.61700302734375,37.097165649414066C25.67990302734375,37.363365649414064,25.61240302734375,37.45356564941406,25.21560302734375,37.634165649414065C24.95320302734375,37.75346564941406,24.29340302734375,37.91256564941406,23.74940302734375,37.98766564941406C23.20540302734375,38.06276564941406,22.04790302734375,38.15346564941406,21.17720302734375,38.18926564941406ZM27.81650302734375,37.27446564941406C27.63180302734375,37.27446564941406,27.44580302734375,37.17556564941406,27.40310302734375,37.054565649414066C27.36050302734375,36.93366564941406,27.35510302734375,36.59546564941406,27.39110302734375,36.303065649414066C27.42720302734375,36.01056564941406,27.61100302734375,35.439565649414064,27.79980302734375,35.03406564941406C27.98850302734375,34.62866564941406,28.25800302734375,33.95986564941406,28.39870302734375,33.54796564941406C28.53940302734375,33.136065649414064,28.77810302734375,32.255565649414066,28.92920302734375,31.591365649414062C29.11200302734375,30.78816564941406,29.22930302734375,29.69386564941406,29.27940302734375,28.323565649414064C29.32930302734375,26.958665649414062,29.29940302734375,25.903865649414062,29.19090302734375,25.197865649414062C29.10080302734375,24.611865649414064,28.91800302734375,23.66796564941406,28.78480302734375,23.100465649414062C28.65160302734375,22.532965649414063,28.33350302734375,21.541965649414063,28.07800302734375,20.898265649414064C27.82240302734375,20.25456564941406,27.40870302734375,19.36576564941406,27.15850302734375,18.923065649414063C26.90840302734375,18.48046564941406,26.51980302734375,17.71486564941406,26.29510302734375,17.221665649414064C26.07040302734375,16.72856564941406,25.74440302734375,15.882165649414063,25.57070302734375,15.340965649414063C25.39710302734375,14.799765649414063,25.17220302734375,13.998965649414062,25.07110302734375,13.561465649414062C24.96990302734375,13.124065649414062,24.83290302734375,12.161765649414063,24.76660302734375,11.423165649414063C24.69430302734375,10.618325649414063,24.69270302734375,9.479805649414063,24.76250302734375,8.581625649414063C24.82670302734375,7.757375649414063,24.96510302734375,6.667415649414062,25.07020302734375,6.159495649414063C25.17530302734375,5.651565649414063,25.41070302734375,4.759295649414062,25.59350302734375,4.176685649414063C25.77620302734375,3.5940556494140625,26.05300302734375,2.8310956494140624,26.20850302734375,2.481205649414062C26.36410302734375,2.131315649414063,26.65030302734375,1.6513436494140625,26.84460302734375,1.4146126494140625C27.15550302734375,1.0357919494140626,27.23590302734375,1.0031055494140626,27.51580302734375,1.1419523494140624C27.69070302734375,1.2287236494140625,28.25920302734375,1.8017706494140624,28.77920302734375,2.4153956494140623C29.29910302734375,3.0290056494140627,30.13210302734375,4.1823756494140625,30.63020302734375,4.978435649414063C31.12840302734375,5.774495649414063,31.76520302734375,6.893365649414062,32.04530302734375,7.464795649414063C32.325403027343754,8.036235649414063,32.76330302734375,9.058565649414064,33.01840302734375,9.736635649414062C33.27350302734375,10.414705649414062,33.688603027343746,11.742765649414062,33.94090302734375,12.687765649414063C34.19580302734375,13.642865649414063,34.473103027343754,15.114665649414063,34.56520302734375,16.001365649414062C34.65640302734375,16.878865649414063,34.731003027343746,18.651665649414063,34.731003027343746,19.940965649414064C34.731003027343746,21.253765649414063,34.65190302734375,22.816665649414062,34.551203027343746,23.492965649414064C34.452303027343746,24.15716564941406,34.173603027343745,25.45586564941406,33.932003027343754,26.378865649414063C33.69040302734375,27.30196564941406,33.25850302734375,28.709365649414064,32.97220302734375,29.506465649414064C32.68600302734375,30.30356564941406,32.05860302734375,31.658265649414062,31.57810302734375,32.51676564941406C31.09760302734375,33.37526564941406,30.42490302734375,34.496965649414065,30.08320302734375,35.00926564941406C29.74150302734375,35.52166564941406,29.16730302734375,36.24086564941406,28.80720302734375,36.60766564941406C28.37800302734375,37.04476564941406,28.03670302734375,37.27446564941406,27.81650302734375,37.27446564941406ZM30.33320302734375,36.52016564941406C29.96990302734375,36.599265649414065,29.93500302734375,36.57886564941406,30.01960302734375,36.33796564941406C30.07210302734375,36.18886564941406,30.21400302734375,35.90226564941406,30.33510302734375,35.70106564941406C30.45620302734375,35.499965649414065,30.82550302734375,34.95646564941406,31.15560302734375,34.49346564941406C31.48580302734375,34.030365649414065,32.054003027343754,33.13216564941406,32.418303027343754,32.497565649414064C32.78270302734375,31.86286564941406,33.37190302734375,30.711765649414062,33.727803027343754,29.939665649414064C34.083703027343745,29.167565649414062,34.64490302734375,27.724565649414064,34.975003027343746,26.733065649414062C35.30510302734375,25.741565649414063,35.68960302734375,24.367165649414062,35.82960302734375,23.678865649414064C35.96950302734375,22.990565649414062,36.14940302734375,21.75606564941406,36.22930302734375,20.935565649414063C36.30920302734375,20.115065649414063,36.46840302734375,19.028165649414063,36.58300302734375,18.520265649414064C36.69760302734375,18.01226564941406,36.95330302734375,17.163565649414064,37.15110302734375,16.63406564941406C37.34890302734375,16.104565649414063,37.76260302734375,15.209465649414062,38.07040302734375,14.644965649414063C38.39480302734375,14.050065649414062,39.12710302734375,13.072965649414062,39.81230302734375,12.320865649414063C40.46250302734375,11.607065649414062,41.37060302734375,10.759965649414063,41.83030302734375,10.438325649414063C42.38670302734375,10.049025649414062,42.81310302734375,9.853505649414062,43.10580302734375,9.853505649414062C43.45600302734375,9.853505649414062,43.57100302734375,9.926585649414063,43.67090302734375,10.212575649414063C43.73980302734375,10.410065649414063,43.83380302734375,11.353065649414063,43.87970302734375,12.308265649414063C43.92700302734375,13.293765649414063,43.89920302734375,14.782165649414063,43.81530302734375,15.749765649414062C43.73400302734375,16.68746564941406,43.55100302734375,18.053065649414062,43.40870302734375,18.784465649414063C43.26630302734375,19.515965649414063,43.00220302734375,20.62346564941406,42.82160302734375,21.24566564941406C42.64110302734375,21.867865649414064,42.29380302734375,22.899765649414064,42.04990302734375,23.538765649414064C41.80600302734375,24.177765649414063,41.32530302734375,25.24406564941406,40.98170302734375,25.908265649414062C40.63800302734375,26.572465649414063,40.01120302734375,27.646065649414062,39.58880302734375,28.294065649414062C39.16640302734375,28.94206564941406,38.45840302734375,29.915765649414062,38.01550302734375,30.45766564941406C37.57270302734375,30.999665649414062,36.68180302734375,31.95906564941406,36.03590302734375,32.58956564941406C35.39000302734375,33.220165649414064,34.29910302734375,34.14216564941406,33.611803027343754,34.63836564941406C32.92450302734375,35.134565649414064,31.99760302734375,35.740965649414065,31.55210302734375,35.98586564941406C31.10650302734375,36.23076564941406,30.55800302734375,36.47116564941406,30.33320302734375,36.52016564941406ZM35.18770302734375,36.46306564941406C34.86470302734375,36.50176564941406,34.54180302734375,36.513665649414065,34.47000302734375,36.48936564941406C34.39830302734375,36.46516564941406,34.11030302734375,36.40336564941406,33.83020302734375,36.352065649414065C33.320903027343746,36.25886564941406,33.320903027343746,36.25886564941406,33.634503027343754,35.933565649414064C33.80690302734375,35.754665649414065,34.51270302734375,35.28916564941406,35.20280302734375,34.89926564941406C35.89290302734375,34.509365649414065,36.86160302734375,33.87736564941406,37.35540302734375,33.49466564941406C37.84920302734375,33.11206564941406,38.75580302734375,32.255565649414066,39.37000302734375,31.591365649414062C40.09380302734375,30.808665649414063,40.84740302734375,29.78386564941406,41.51190302734375,28.678765649414064C42.07570302734375,27.74106564941406,42.89460302734375,26.567865649414063,43.33170302734375,26.07166564941406C43.76870302734375,25.575465649414063,44.47540302734375,24.883465649414063,44.90220302734375,24.533965649414064C45.32900302734375,24.18436564941406,46.20980302734375,23.618465649414063,46.85960302734375,23.276465649414064C47.50930302734375,22.93436564941406,48.48130302734375,22.522765649414062,49.01960302734375,22.361765649414064C49.55790302734375,22.200765649414063,50.38790302734375,22.02926564941406,50.86410302734375,21.980665649414064C51.34020302734375,21.932065649414064,51.94930302734375,21.937165649414062,52.21760302734375,21.991965649414063C52.69280302734375,22.089065649414064,52.70360302734375,22.105065649414062,52.64040302734375,22.618465649414063C52.60470302734375,22.908165649414062,52.36060302734375,23.60996564941406,52.09790302734375,24.177765649414063C51.83530302734375,24.74566564941406,51.34950302734375,25.67106564941406,51.01840302734375,26.234165649414063C50.68740302734375,26.79726564941406,50.07800302734375,27.705565649414062,49.66430302734375,28.252565649414063C49.25060302734375,28.799565649414063,48.48120302734375,29.700665649414063,47.95460302734375,30.255065649414064C47.42790302734375,30.80946564941406,46.64470302734375,31.55366564941406,46.21410302734375,31.90876564941406C45.78350302734375,32.26396564941406,44.93200302734375,32.89216564941407,44.32200302734375,33.304765649414065C43.71190302734375,33.71746564941406,42.86050302734375,34.22846564941406,42.42990302734375,34.44036564941406C41.99930302734375,34.65226564941406,41.00100302734375,35.051565649414066,40.21160302734375,35.32756564941406C39.42210302734375,35.603565649414065,38.10090302734375,35.95616564941406,37.27550302734375,36.11096564941406C36.45020302734375,36.26586564941406,35.51070302734375,36.42426564941406,35.18770302734375,36.46306564941406ZM25.40590302734375,34.85916564941406C25.33690302734375,34.85916564941406,24.91420302734375,34.50346564941406,24.46670302734375,34.068665649414065C24.01920302734375,33.63386564941406,23.30660302734375,32.994565649414064,22.88320302734375,32.648065649414065C22.45980302734375,32.30146564941406,21.62660302734375,31.766165649414063,21.03180302734375,31.458465649414062C20.43700302734375,31.150765649414062,19.54720302734375,30.769565649414062,19.05450302734375,30.61126564941406C18.56190302734375,30.45296564941406,17.20880302734375,30.09766564941406,16.04760302734375,29.82176564941406C14.88640302734375,29.54576564941406,13.42790302734375,29.119665649414063,12.80649302734375,28.874865649414062C12.18508302734375,28.630065649414064,11.12769302734375,28.125465649414064,10.456753027343751,27.753465649414064C9.78581302734375,27.381565649414064,8.71932302734375,26.67396564941406,8.086793027343749,26.181065649414062C7.45425302734375,25.688165649414064,6.45734302734375,24.767565649414063,5.87144302734375,24.135265649414062C5.2855330273437495,23.50306564941406,4.70158302734375,22.74696564941406,4.57377302734375,22.455065649414063C4.35314902734375,21.95136564941406,4.35285502734375,21.912065649414064,4.56797302734375,21.67866564941406C4.76426302734375,21.465665649414063,5.07730302734375,21.43306564941406,6.90955302734375,21.43466564941406C8.55467302734375,21.43606564941406,9.34344302734375,21.505465649414063,10.45993302734375,21.74706564941406C11.24940302734375,21.91786564941406,12.48253302734375,22.266665649414062,13.20022302734375,22.522065649414063C13.91790302734375,22.77756564941406,15.26850302734375,23.406165649414064,16.201503027343747,23.918965649414062C17.13450302734375,24.431765649414064,18.455703027343752,25.30516564941406,19.137503027343747,25.85986564941406C19.81930302734375,26.414465649414062,20.93840302734375,27.499365649414063,21.62450302734375,28.270765649414063C22.31050302734375,29.042165649414063,23.21960302734375,30.18476564941406,23.64480302734375,30.809965649414064C24.06990302734375,31.435065649414064,24.66840302734375,32.42456564941406,24.97460302734375,33.00866564941406C25.28090302734375,33.592865649414065,25.53150302734375,34.248265649414066,25.53150302734375,34.46496564941406C25.53150302734375,34.68176564941406,25.47500302734375,34.85916564941406,25.40590302734375,34.85916564941406ZM27.39930302734375,33.685065649414064C27.31410302734375,33.71536564941406,27.15780302734375,33.59236564941406,27.05180302734375,33.41166564941406C26.94590302734375,33.23096564941406,26.72980302734375,32.60366564941406,26.57170302734375,32.01756564941407C26.41360302734375,31.43156564941406,26.04820302734375,30.44056564941406,25.75980302734375,29.815365649414062C25.47130302734375,29.190265649414062,24.99900302734375,28.295165649414063,24.71010302734375,27.82636564941406C24.42130302734375,27.357465649414063,23.80850302734375,26.511765649414063,23.34850302734375,25.94696564941406C22.88840302734375,25.382165649414063,22.03160302734375,24.474765649414064,21.44460302734375,23.930465649414064C20.85750302734375,23.386065649414064,19.81320302734375,22.430665649414063,19.12400302734375,21.807265649414063C18.43480302734375,21.183865649414063,17.34730302734375,20.013365649414062,16.707303027343748,19.206165649414064C16.067303027343748,18.399065649414062,15.21220302734375,17.19526564941406,14.80700302734375,16.53106564941406C14.40190302734375,15.866865649414063,13.83350302734375,14.843965649414063,13.54390302734375,14.257865649414063C13.25425302734375,13.671865649414062,12.81635302734375,12.648865649414063,12.57075302734375,11.984665649414062C12.32515302734375,11.320465649414063,11.95688302734375,10.137665649414062,11.75237302734375,9.356235649414062C11.54786302734375,8.574815649414063,11.378923027343749,7.5838156494140625,11.376953027343749,7.1540356494140624C11.37360302734375,6.424965649414062,11.39522302734375,6.369855649414062,11.69959302734375,6.331525649414062C11.88467302734375,6.308215649414063,12.53393302734375,6.560315649414062,13.20022302734375,6.914195649414062C13.84610302734375,7.257255649414063,14.75630302734375,7.7928056494140625,15.22280302734375,8.104295649414063C15.68930302734375,8.415785649414062,16.57400302734375,9.062485649414063,17.18890302734375,9.541415649414063C17.80370302734375,10.020345649414063,18.81400302734375,10.928965649414062,19.43400302734375,11.560565649414063C20.05400302734375,12.192165649414063,21.02460302734375,13.297165649414062,21.59080302734375,14.016165649414063C22.15700302734375,14.735165649414062,22.97630302734375,15.898865649414063,23.41150302734375,16.60216564941406C23.84670302734375,17.305465649414064,24.48340302734375,18.488265649414064,24.82640302734375,19.230665649414064C25.16930302734375,19.972965649414064,25.63600302734375,21.059865649414064,25.86350302734375,21.645965649414062C26.09090302734375,22.23196564941406,26.43130302734375,23.286965649414064,26.61990302734375,23.990265649414063C26.80850302734375,24.693465649414062,27.11520302734375,26.036165649414063,27.30140302734375,26.973865649414062C27.52860302734375,28.117865649414064,27.66430302734375,29.327565649414062,27.71380302734375,30.65086564941406C27.75430302734375,31.735465649414063,27.73500302734375,32.849465649414064,27.67080302734375,33.126465649414065C27.60660302734375,33.40336564941406,27.48440302734375,33.65476564941406,27.39930302734375,33.685065649414064Z" fill-rule="evenodd" fill="#2B5F96" fill-opacity="1"/></g></g></svg>
