<svg xmlns="http://www.w3.org/2000/svg" fill="none" version="1.1" width="16"
     height="16" viewBox="0 0 16 16">
  <defs>
    <clipPath id="master_svg0_899_3344">
      <rect x="0" y="0" width="16" height="16" rx="0"/>
    </clipPath>
  </defs>
  <g clip-path="url(#master_svg0_899_3344)">
    <g>
      <path
        d="M13.3333,14.666628247070312L2.666667,14.666628247070312C2.298477,14.666628247070312,2,14.368228247070313,2,14.000028247070313L2,1.9999952470703124C2,1.6318052470703126,2.298477,1.3333282470703125,2.666667,1.3333282470703125L13.3333,1.3333282470703125C13.7015,1.3333282470703125,14,1.6318052470703126,14,1.9999952470703124L14,14.000028247070313C14,14.368228247070313,13.7015,14.666628247070312,13.3333,14.666628247070312ZM4.66667,3.9999982470703124L4.66667,6.666658247070313L7.33333,6.666658247070313L7.33333,3.9999982470703124L4.66667,3.9999982470703124ZM4.66667,7.999998247070312L4.66667,9.333328247070312L11.33333,9.333328247070312L11.33333,7.999998247070312L4.66667,7.999998247070312ZM4.66667,10.666658247070313L4.66667,12.000028247070313L11.33333,12.000028247070313L11.33333,10.666658247070313L4.66667,10.666658247070313ZM8.66667,4.666658247070313L8.66667,5.999998247070312L11.33333,5.999998247070312L11.33333,4.666658247070313L8.66667,4.666658247070313Z"
        fill="#5B5B5B" fill-opacity="1"/>
    </g>
  </g>
</svg>
